<svg width="120" height="120" viewBox="0 0 120 120" fill="none" xmlns="http://www.w3.org/2000/svg">
<path d="M120 0H0V120H120V0Z" fill="#3347FF" fill-opacity="0.1"/>
<path opacity="0.35" d="M91.3699 77.8422H88.4307V53.1295C88.4307 43.1357 80.3019 35.0069 70.3081 35.0069C60.3144 35.0069 52.1854 43.1357 52.1854 53.1295V69.6047C52.1854 72.3297 49.9679 74.5472 47.2429 74.5472C44.518 74.5472 42.3005 72.3297 42.3005 69.6047V48.187H45.2396C47.0189 48.187 47.9119 46.042 46.6597 44.7767L37.7665 35.7978C36.633 34.6543 34.7878 34.6543 33.6576 35.7978L24.761 44.7767C23.5089 46.042 24.4052 48.187 26.1812 48.187H29.1203V69.6047C29.1203 79.5985 37.2492 87.7273 47.2429 87.7273C57.2367 87.7273 65.3655 79.5985 65.3655 69.6047V53.1295C65.3655 50.4045 67.5832 48.187 70.3081 48.187C73.0331 48.187 75.2506 50.4045 75.2506 53.1295V77.8422H72.3115C70.5321 77.8422 69.6392 79.9873 70.8913 81.2526L79.7846 90.2315C80.9181 91.3748 82.7633 91.3748 83.8935 90.2315L92.7868 81.2526C94.0422 79.9873 93.1459 77.8422 91.3699 77.8422Z" fill="#3347FF"/>
<path d="M91.3704 77.8423H88.4313V53.1297C88.4313 43.1359 80.3024 35.0071 70.3087 35.0071C70.3087 35.0071 75.2512 41.5971 75.2512 53.1297V77.8423H72.3119C70.5326 77.8423 69.6397 79.9874 70.8919 81.2526L79.7851 90.2317C80.9185 91.375 82.7638 91.375 83.894 90.2317L92.7873 81.2526C94.0426 79.9874 93.1464 77.8423 91.3704 77.8423Z" fill="#3347FF"/>
</svg>
