<svg width="120" height="120" viewBox="0 0 120 120" fill="none" xmlns="http://www.w3.org/2000/svg">
<path d="M120 0H0V120H120V0Z" fill="#3347FF" fill-opacity="0.1"/>
<path d="M92.1953 30.1157C92.1953 28.5301 90.3386 27.676 89.1318 28.7046L78.623 37.6761C77.7541 38.4188 77.7541 39.7593 78.623 40.5019L89.1318 49.4734C90.3386 50.4983 92.1953 49.6405 92.1953 48.0585V30.1157Z" fill="#3347FF"/>
<path d="M25.3549 92.6187C25.3549 94.2043 27.2115 95.0583 28.4183 94.0298L38.9271 85.0582C39.7961 84.3157 39.7961 82.9752 38.9271 82.2325L28.4183 73.2609C27.2115 72.2362 25.3549 73.0902 25.3549 74.6758V92.6187Z" fill="#3347FF"/>
<path opacity="0.35" d="M71.7721 101.828C85.1024 101.828 95.9089 91.0214 95.9089 77.691C95.9089 64.3607 85.1024 53.5542 71.7721 53.5542C58.4417 53.5542 47.6354 64.3607 47.6354 77.691C47.6354 91.0214 58.4417 101.828 71.7721 101.828Z" fill="#3347FF"/>
<path d="M81.0555 83.3207C81.0555 78.3781 77.4016 77.2568 76.9077 77.1306V77.06C80.2162 75.1698 80.168 72.8751 80.168 71.3191C80.168 67.4424 77.9325 65.2367 74.2489 64.7094C74.2527 64.6647 74.2749 64.624 74.2749 64.5794C74.2749 64.1709 74.2749 62.8007 74.2749 62.3923C74.2749 61.1853 73.2946 60.2051 72.0878 60.2051C70.8808 60.2051 69.9006 61.1853 69.9006 62.3923C69.9006 62.7969 69.9006 64.1709 69.9006 64.5794H68.029C66.1204 64.5794 64.5719 66.1279 64.5682 68.0402V87.3497C64.5682 89.2582 66.1167 90.8104 68.029 90.8104H69.9006C69.9006 91.219 69.9006 92.5892 69.9006 92.9976C69.9006 94.2046 70.8808 95.1848 72.0878 95.1848C73.2946 95.1848 74.2749 94.2046 74.2749 92.9976C74.2749 92.5892 74.2749 91.219 74.2749 90.8104C74.2749 90.7808 74.26 90.7548 74.2563 90.7251C79.4922 90.2869 81.0555 86.5773 81.0555 83.3207ZM72.0914 69.4662C73.5396 69.4662 74.9469 70.0863 74.9469 72.2623C74.9469 74.1264 73.7922 75.1698 72.1285 75.1698H70.09V69.4662H72.0914ZM72.3179 85.9088H70.0936V79.5034H72.2436C74.546 79.5034 75.4297 81.1335 75.4297 82.7823C75.4261 84.4198 74.4977 85.9125 72.3179 85.9088Z" fill="#3347FF"/>
<path d="M45.7784 20.5205C32.4474 20.5205 21.6416 31.3263 21.6416 44.6573C21.6416 57.9883 32.4474 68.794 45.7784 68.794C59.1092 68.794 69.9151 57.9883 69.9151 44.6573C69.9151 31.3263 59.1092 20.5205 45.7784 20.5205ZM46.8365 57.8508V59.4513C46.8365 60.4539 46.0234 61.2672 45.0208 61.2672C44.0181 61.2672 43.205 60.4539 43.205 59.4513V58.1739C41.6936 58.0141 40.4385 57.5649 39.4136 56.9819C38.1919 56.2874 37.8725 54.6685 38.6635 53.51L38.7378 53.4022C39.4247 52.3996 40.7579 51.9838 41.8347 52.5481C42.4659 52.8786 43.2458 53.1349 44.1481 53.1349C46.1793 53.1349 46.5507 51.4194 46.5507 50.6321C46.5507 46.54 38.3739 47.9622 38.3739 40.0899C38.3739 36.5324 40.3493 33.7512 43.3869 32.7374V31.2633C43.3869 30.2606 44.2002 29.4474 45.2027 29.4474C46.2053 29.4474 47.0186 30.2606 47.0186 31.2633V32.3512C48.1771 32.4627 49.1314 32.7374 49.8964 33.0828C51.2926 33.7104 51.7493 35.4705 50.8656 36.7182C50.1712 37.6984 48.879 38.1515 47.7909 37.6613C47.3268 37.4534 46.7809 37.3049 46.1645 37.3049C45.5407 37.3049 43.7285 37.5462 43.7285 39.8485C43.7285 43.7586 52.0093 42.7338 52.0093 50.2347C52.0056 53.755 50.1935 56.8185 46.8365 57.8508Z" fill="#3347FF"/>
<path opacity="0.35" d="M52.0056 50.2346C52.0056 42.7337 43.7249 43.7586 43.7249 39.8484C43.7249 37.5461 45.537 37.3048 46.1609 37.3048C46.7772 37.3048 47.3231 37.4495 47.7872 37.6612C48.8753 38.1515 50.1676 37.6984 50.8582 36.7217C51.742 35.4704 51.2853 33.7139 49.889 33.0864C49.124 32.741 48.1698 32.4626 47.0111 32.3511V31.2632C47.0111 30.2605 46.1979 29.4473 45.1954 29.4473C44.1927 29.4473 43.3795 30.2605 43.3795 31.2632V32.7337C40.342 33.7473 38.3665 36.5287 38.3665 40.0861C38.3665 47.9584 46.5433 46.5361 46.5433 50.6283C46.5433 51.4155 46.172 53.1311 44.1408 53.1311C43.2383 53.1311 42.4623 52.8785 41.8273 52.5444C40.7504 51.9799 39.4173 52.3957 38.7304 53.3984L38.6561 53.5061C37.8652 54.6646 38.1845 56.2874 39.4062 56.9782C40.4311 57.5611 41.6862 58.0141 43.1976 58.1701V59.4438C43.1976 60.4463 44.0108 61.2596 45.0133 61.2596C46.016 61.2596 46.8292 60.4463 46.8292 59.4438V57.8433C50.1934 56.8184 52.0056 53.7549 52.0056 50.2346Z" fill="#3347FF"/>
</svg>
