<svg width="50" height="50" viewBox="0 0 50 50" fill="none" xmlns="http://www.w3.org/2000/svg">
<path d="M16.669 25C16.669 20.3978 20.3988 16.666 25.001 16.666C29.6032 16.666 33.335 20.3978 33.335 25C33.335 29.6022 29.6032 33.334 25.001 33.334C20.3988 33.334 16.669 29.6022 16.669 25ZM12.1638 25C12.1638 32.09 17.911 37.8372 25.001 37.8372C32.091 37.8372 37.8382 32.09 37.8382 25C37.8382 17.91 32.091 12.1628 25.001 12.1628C17.911 12.1628 12.1638 17.91 12.1638 25ZM35.3464 11.6538C35.3461 12.2471 35.5219 12.8272 35.8513 13.3207C36.1807 13.8142 36.6491 14.1989 37.1972 14.4262C37.7453 14.6535 38.3485 14.7131 38.9305 14.5976C39.5125 14.4821 40.0471 14.1966 40.4668 13.7772C40.8866 13.3578 41.1725 12.8233 41.2885 12.2414C41.4045 11.6596 41.3453 11.0563 41.1185 10.5081C40.8916 9.95979 40.5073 9.4911 40.0141 9.16126C39.5209 8.83142 38.9409 8.65524 38.3476 8.655H38.3464C37.551 8.65537 36.7884 8.9714 36.2259 9.53366C35.6634 10.0959 35.3471 10.8585 35.3464 11.6538ZM14.901 45.3494C12.4636 45.2384 11.1388 44.8324 10.2584 44.4894C9.09118 44.035 8.25838 43.4938 7.38278 42.6194C6.50718 41.745 5.96518 40.913 5.51278 39.7458C5.16958 38.8658 4.76358 37.5406 4.65278 35.1032C4.53158 32.468 4.50738 31.6764 4.50738 25.0002C4.50738 18.324 4.53358 17.5346 4.65278 14.8972C4.76378 12.4598 5.17278 11.1372 5.51278 10.2546C5.96718 9.0874 6.50838 8.2546 7.38278 7.379C8.25718 6.5034 9.08918 5.9614 10.2584 5.509C11.1384 5.1658 12.4636 4.7598 14.901 4.649C17.5362 4.5278 18.3278 4.5036 25.001 4.5036C31.6742 4.5036 32.4666 4.5298 35.104 4.649C37.5414 4.76 38.864 5.169 39.7466 5.509C40.9138 5.9614 41.7466 6.5046 42.6222 7.379C43.4978 8.2534 44.0378 9.0874 44.4922 10.2546C44.8354 11.1346 45.2414 12.4598 45.3522 14.8972C45.4734 17.5346 45.4976 18.324 45.4976 25.0002C45.4976 31.6764 45.4734 32.4658 45.3522 35.1032C45.2412 37.5406 44.8332 38.8654 44.4922 39.7458C44.0378 40.913 43.4966 41.7458 42.6222 42.6194C41.7478 43.493 40.9138 44.035 39.7466 44.4894C38.8666 44.8326 37.5414 45.2386 35.104 45.3494C32.4688 45.4706 31.6772 45.4948 25.001 45.4948C18.3248 45.4948 17.5354 45.4706 14.901 45.3494ZM14.694 0.1514C12.0326 0.2726 10.214 0.6946 8.62578 1.3126C6.98098 1.9508 5.58858 2.807 4.19718 4.1962C2.80578 5.5854 1.95178 6.98 1.31358 8.6248C0.695576 10.214 0.273577 12.0316 0.152377 14.693C0.0291766 17.3586 0.000976562 18.2108 0.000976562 25C0.000976562 31.7892 0.0291766 32.6414 0.152377 35.307C0.273577 37.9686 0.695576 39.786 1.31358 41.3752C1.95178 43.019 2.80598 44.4152 4.19718 45.8038C5.58838 47.1924 6.98098 48.0474 8.62578 48.6874C10.217 49.3054 12.0326 49.7274 14.694 49.8486C17.361 49.9698 18.2118 50 25.001 50C31.7902 50 32.6424 49.9718 35.308 49.8486C37.9696 49.7274 39.787 49.3054 41.3762 48.6874C43.02 48.0474 44.4134 47.193 45.8048 45.8038C47.1962 44.4146 48.0484 43.019 48.6884 41.3752C49.3064 39.786 49.7304 37.9684 49.8496 35.307C49.9708 32.6394 49.999 31.7892 49.999 25C49.999 18.2108 49.9708 17.3586 49.8496 14.693C49.7284 12.0314 49.3064 10.213 48.6884 8.6248C48.0484 6.981 47.194 5.5876 45.8048 4.1962C44.4156 2.8048 43.02 1.9508 41.3782 1.3126C39.787 0.6946 37.9694 0.2706 35.31 0.1514C32.6444 0.0302 31.7922 0 25.003 0C18.2138 0 17.361 0.0282 14.694 0.1514Z" fill="url(#paint0_radial_173_844)"/>
<path d="M16.669 25C16.669 20.3978 20.3988 16.666 25.001 16.666C29.6032 16.666 33.335 20.3978 33.335 25C33.335 29.6022 29.6032 33.334 25.001 33.334C20.3988 33.334 16.669 29.6022 16.669 25ZM12.1638 25C12.1638 32.09 17.911 37.8372 25.001 37.8372C32.091 37.8372 37.8382 32.09 37.8382 25C37.8382 17.91 32.091 12.1628 25.001 12.1628C17.911 12.1628 12.1638 17.91 12.1638 25ZM35.3464 11.6538C35.3461 12.2471 35.5219 12.8272 35.8513 13.3207C36.1807 13.8142 36.6491 14.1989 37.1972 14.4262C37.7453 14.6535 38.3485 14.7131 38.9305 14.5976C39.5125 14.4821 40.0471 14.1966 40.4668 13.7772C40.8866 13.3578 41.1725 12.8233 41.2885 12.2414C41.4045 11.6596 41.3453 11.0563 41.1185 10.5081C40.8916 9.95979 40.5073 9.4911 40.0141 9.16126C39.5209 8.83142 38.9409 8.65524 38.3476 8.655H38.3464C37.551 8.65537 36.7884 8.9714 36.2259 9.53366C35.6634 10.0959 35.3471 10.8585 35.3464 11.6538ZM14.901 45.3494C12.4636 45.2384 11.1388 44.8324 10.2584 44.4894C9.09118 44.035 8.25838 43.4938 7.38278 42.6194C6.50718 41.745 5.96518 40.913 5.51278 39.7458C5.16958 38.8658 4.76358 37.5406 4.65278 35.1032C4.53158 32.468 4.50738 31.6764 4.50738 25.0002C4.50738 18.324 4.53358 17.5346 4.65278 14.8972C4.76378 12.4598 5.17278 11.1372 5.51278 10.2546C5.96718 9.0874 6.50838 8.2546 7.38278 7.379C8.25718 6.5034 9.08918 5.9614 10.2584 5.509C11.1384 5.1658 12.4636 4.7598 14.901 4.649C17.5362 4.5278 18.3278 4.5036 25.001 4.5036C31.6742 4.5036 32.4666 4.5298 35.104 4.649C37.5414 4.76 38.864 5.169 39.7466 5.509C40.9138 5.9614 41.7466 6.5046 42.6222 7.379C43.4978 8.2534 44.0378 9.0874 44.4922 10.2546C44.8354 11.1346 45.2414 12.4598 45.3522 14.8972C45.4734 17.5346 45.4976 18.324 45.4976 25.0002C45.4976 31.6764 45.4734 32.4658 45.3522 35.1032C45.2412 37.5406 44.8332 38.8654 44.4922 39.7458C44.0378 40.913 43.4966 41.7458 42.6222 42.6194C41.7478 43.493 40.9138 44.035 39.7466 44.4894C38.8666 44.8326 37.5414 45.2386 35.104 45.3494C32.4688 45.4706 31.6772 45.4948 25.001 45.4948C18.3248 45.4948 17.5354 45.4706 14.901 45.3494ZM14.694 0.1514C12.0326 0.2726 10.214 0.6946 8.62578 1.3126C6.98098 1.9508 5.58858 2.807 4.19718 4.1962C2.80578 5.5854 1.95178 6.98 1.31358 8.6248C0.695576 10.214 0.273577 12.0316 0.152377 14.693C0.0291766 17.3586 0.000976562 18.2108 0.000976562 25C0.000976562 31.7892 0.0291766 32.6414 0.152377 35.307C0.273577 37.9686 0.695576 39.786 1.31358 41.3752C1.95178 43.019 2.80598 44.4152 4.19718 45.8038C5.58838 47.1924 6.98098 48.0474 8.62578 48.6874C10.217 49.3054 12.0326 49.7274 14.694 49.8486C17.361 49.9698 18.2118 50 25.001 50C31.7902 50 32.6424 49.9718 35.308 49.8486C37.9696 49.7274 39.787 49.3054 41.3762 48.6874C43.02 48.0474 44.4134 47.193 45.8048 45.8038C47.1962 44.4146 48.0484 43.019 48.6884 41.3752C49.3064 39.786 49.7304 37.9684 49.8496 35.307C49.9708 32.6394 49.999 31.7892 49.999 25C49.999 18.2108 49.9708 17.3586 49.8496 14.693C49.7284 12.0314 49.3064 10.213 48.6884 8.6248C48.0484 6.981 47.194 5.5876 45.8048 4.1962C44.4156 2.8048 43.02 1.9508 41.3782 1.3126C39.787 0.6946 37.9694 0.2706 35.31 0.1514C32.6444 0.0302 31.7922 0 25.003 0C18.2138 0 17.361 0.0282 14.694 0.1514Z" fill="url(#paint1_radial_173_844)"/>
<defs>
<radialGradient id="paint0_radial_173_844" cx="0" cy="0" r="1" gradientUnits="userSpaceOnUse" gradientTransform="translate(6.64378 50.2362) scale(65.2708 65.2708)">
<stop offset="0.09" stop-color="#FA8F21"/>
<stop offset="0.78" stop-color="#D82D7E"/>
</radialGradient>
<radialGradient id="paint1_radial_173_844" cx="0" cy="0" r="1" gradientUnits="userSpaceOnUse" gradientTransform="translate(30.3238 52.4762) scale(51.4424)">
<stop offset="0.64" stop-color="#8C3AAA" stop-opacity="0"/>
<stop offset="1" stop-color="#8C3AAA"/>
</radialGradient>
</defs>
</svg>
