<svg width="120" height="120" viewBox="0 0 120 120" fill="none" xmlns="http://www.w3.org/2000/svg">
<path d="M120 0H0V120H120V0Z" fill="#3347FF" fill-opacity="0.1"/>
<path d="M72.1393 63.4678H47.8606C41.1563 63.4678 35.7213 68.9028 35.7213 75.6071C35.7213 82.3114 41.1563 87.7464 47.8606 87.7464H72.1393C78.8436 87.7464 84.2786 82.3114 84.2786 75.6071C84.2786 68.9028 78.8436 63.4678 72.1393 63.4678Z" fill="#3347FF"/>
<path d="M89.4811 70.4048H30.5188C25.7289 70.4048 21.8478 74.2859 21.8478 79.0758C21.8478 83.8656 25.7289 87.7466 30.5188 87.7466H89.4811C94.2709 87.7466 98.1519 83.8656 98.1519 79.0758C98.1519 74.2859 94.2709 70.4048 89.4811 70.4048Z" fill="#3347FF"/>
<path opacity="0.35" d="M60 56.5312C67.6621 56.5312 73.8735 50.3198 73.8735 42.6577C73.8735 34.9955 67.6621 28.7842 60 28.7842C52.3378 28.7842 46.1265 34.9955 46.1265 42.6577C46.1265 50.3198 52.3378 56.5312 60 56.5312Z" fill="#3347FF"/>
<path opacity="0.35" d="M87.747 59.9996C93.4935 59.9996 98.152 55.3411 98.152 49.5945C98.152 43.848 93.4935 39.1895 87.747 39.1895C82.0003 39.1895 77.3418 43.848 77.3418 49.5945C77.3418 55.3411 82.0003 59.9996 87.747 59.9996Z" fill="#3347FF"/>
<path opacity="0.35" d="M32.2529 59.9996C37.9996 59.9996 42.6581 55.3411 42.6581 49.5945C42.6581 43.848 37.9996 39.1895 32.2529 39.1895C26.5064 39.1895 21.8478 43.848 21.8478 49.5945C21.8478 55.3411 26.5064 59.9996 32.2529 59.9996Z" fill="#3347FF"/>
</svg>
