<svg width="120" height="120" viewBox="0 0 120 120" fill="none" xmlns="http://www.w3.org/2000/svg">
<path d="M120 0H0V120H120V0Z" fill="#3347FF" fill-opacity="0.1"/>
<path d="M90.6622 81.4508C89.7273 80.516 84.3368 75.1255 81.539 72.3276C79.1972 76.0473 76.0477 79.1968 72.328 81.5386C75.1258 84.3365 80.5163 89.727 81.4512 90.6618C83.9948 93.2056 88.1183 93.2056 90.6622 90.6618C93.206 88.118 93.206 83.9946 90.6622 81.4508Z" fill="#3347FF"/>
<path opacity="0.35" d="M56.743 86.0567C72.9325 86.0567 86.0567 72.9325 86.0567 56.743C86.0567 40.5534 72.9325 27.4292 56.743 27.4292C40.5534 27.4292 27.4292 40.5534 27.4292 56.743C27.4292 72.9325 40.5534 86.0567 56.743 86.0567Z" fill="#3347FF"/>
</svg>
