<svg width="120" height="120" viewBox="0 0 120 120" fill="none" xmlns="http://www.w3.org/2000/svg">
<path d="M120 0H0V120H120V0Z" fill="#3347FF" fill-opacity="0.1"/>
<path opacity="0.35" d="M80.9447 91.4167H39.0553C33.2712 91.4167 28.583 86.7286 28.583 80.9444V42.5459H91.417V80.9444C91.417 86.7286 86.7288 91.4167 80.9447 91.4167Z" fill="#3347FF"/>
<path d="M91.417 42.5462H28.583V39.0553C28.583 33.2712 33.2712 28.583 39.0553 28.583H80.9447C86.7288 28.583 91.417 33.2712 91.417 39.0553V42.5462Z" fill="#3347FF"/>
<path d="M56.5128 84.4351C56.23 84.4351 55.9471 84.4038 55.661 84.3305C53.79 83.8628 52.6555 81.9673 53.1196 80.0961L60.1013 52.17C60.569 50.299 62.4715 49.168 64.3355 49.6286C66.2066 50.0965 67.3411 51.9919 66.8768 53.8629L59.8953 81.7891C59.4973 83.3775 58.0766 84.4351 56.5128 84.4351Z" fill="#3347FF"/>
<path d="M73.9632 77.4538C73.0695 77.4538 72.1758 77.1118 71.4952 76.4311C70.1303 75.0661 70.1303 72.8599 71.4952 71.4951L76.0087 66.9814L71.4952 62.4679C70.1303 61.1031 70.1303 58.8969 71.4952 57.5319C72.86 56.1671 75.0662 56.1671 76.4312 57.5319L83.4127 64.5136C84.7775 65.8784 84.7775 68.0846 83.4127 69.4494L76.4312 76.4311C75.7505 77.1118 74.8569 77.4538 73.9632 77.4538Z" fill="#3347FF"/>
<path d="M46.037 77.4538C45.1433 77.4538 44.2496 77.1118 43.569 76.4311L36.5875 69.4494C35.2225 68.0846 35.2225 65.8784 36.5875 64.5136L43.569 57.5319C44.9338 56.1671 47.14 56.1671 48.505 57.5319C49.8698 58.8969 49.8698 61.1031 48.505 62.4679L43.9913 66.9814L48.505 71.4951C49.8698 72.8599 49.8698 75.0661 48.505 76.4311C47.8241 77.1118 46.9306 77.4538 46.037 77.4538Z" fill="#3347FF"/>
</svg>
