<svg width="120" height="120" viewBox="0 0 120 120" fill="none" xmlns="http://www.w3.org/2000/svg">
<path d="M120 0H0V120H120V0Z" fill="#3347FF" fill-opacity="0.1"/>
<path opacity="0.35" d="M65.5257 85.2891V65.2379L92.4399 48.0823L86.5015 38.7623L60 55.6599L41.2713 43.7169L62.7077 31.6598L57.2923 22.0303L27.8217 38.6074L30.5293 43.4223L27.5602 48.0823L54.4742 65.2379V85.2891L33.4985 71.9168L27.5602 81.2368L57.0308 100.024L60 95.3643L62.9692 100.024L92.4399 81.2368L86.5015 71.9168L65.5257 85.2891Z" fill="#3347FF"/>
<path d="M60 34.2129C64.069 34.2129 67.3677 30.9144 67.3677 26.8452C67.3677 22.7762 64.069 19.4775 60 19.4775C55.931 19.4775 52.6323 22.7762 52.6323 26.8452C52.6323 30.9144 55.931 34.2129 60 34.2129Z" fill="#3347FF"/>
<path d="M89.4707 50.7905C93.5397 50.7905 96.8384 47.4918 96.8384 43.4228C96.8384 39.3537 93.5397 36.0552 89.4707 36.0552C85.4017 36.0552 82.103 39.3537 82.103 43.4228C82.103 47.4918 85.4017 50.7905 89.4707 50.7905Z" fill="#3347FF"/>
<path d="M30.5293 50.7905C34.5983 50.7905 37.897 47.4918 37.897 43.4228C37.897 39.3537 34.5983 36.0552 30.5293 36.0552C26.4601 36.0552 23.1616 39.3537 23.1616 43.4228C23.1616 47.4918 26.4601 50.7905 30.5293 50.7905Z" fill="#3347FF"/>
<path d="M60 100.522C64.069 100.522 67.3677 97.2238 67.3677 93.1548C67.3677 89.0856 64.069 85.7871 60 85.7871C55.931 85.7871 52.6323 89.0856 52.6323 93.1548C52.6323 97.2238 55.931 100.522 60 100.522Z" fill="#3347FF"/>
<path d="M30.5293 83.9448C34.5983 83.9448 37.897 80.6463 37.897 76.5771C37.897 72.5081 34.5983 69.2095 30.5293 69.2095C26.4601 69.2095 23.1616 72.5081 23.1616 76.5771C23.1616 80.6463 26.4601 83.9448 30.5293 83.9448Z" fill="#3347FF"/>
<path d="M89.4707 83.9448C93.5397 83.9448 96.8384 80.6463 96.8384 76.5771C96.8384 72.5081 93.5397 69.2095 89.4707 69.2095C85.4017 69.2095 82.103 72.5081 82.103 76.5771C82.103 80.6463 85.4017 83.9448 89.4707 83.9448Z" fill="#3347FF"/>
<path d="M60 67.3678C64.069 67.3678 67.3677 64.0692 67.3677 60C67.3677 55.931 64.069 52.6323 60 52.6323C55.931 52.6323 52.6323 55.931 52.6323 60C52.6323 64.0692 55.931 67.3678 60 67.3678Z" fill="#3347FF"/>
</svg>
